<mxfile host="app.diagrams.net" modified="2021-02-10T07:47:34.574Z" agent="5.0 (Macintosh; Intel Mac OS X 10_15_7) AppleWebKit/537.36 (KHTML, like Gecko) Chrome/88.0.4324.150 Safari/537.36" etag="FzMz5wJ_pYXCTTQgP6Sh" version="14.3.0" type="github">
  <diagram id="w0sEvAu_Ney4PjW5WM7X" name="Page-1">
    <mxGraphModel dx="1257" dy="786" grid="1" gridSize="10" guides="1" tooltips="1" connect="1" arrows="1" fold="1" page="1" pageScale="1" pageWidth="827" pageHeight="1169" math="0" shadow="0">
      <root>
        <mxCell id="0" />
        <mxCell id="1" parent="0" />
        <mxCell id="opyyuAFiJixU8oToXxR8-1" value="" style="shape=flexArrow;endArrow=classic;html=1;fillColor=#f8cecc;strokeColor=#b85450;" edge="1" parent="1">
          <mxGeometry width="50" height="50" relative="1" as="geometry">
            <mxPoint x="30" y="140" as="sourcePoint" />
            <mxPoint x="950" y="140" as="targetPoint" />
          </mxGeometry>
        </mxCell>
        <mxCell id="opyyuAFiJixU8oToXxR8-35" value="数据流" style="edgeLabel;html=1;align=center;verticalAlign=middle;resizable=0;points=[];" vertex="1" connectable="0" parent="opyyuAFiJixU8oToXxR8-1">
          <mxGeometry x="-0.0978" y="-1" relative="1" as="geometry">
            <mxPoint as="offset" />
          </mxGeometry>
        </mxCell>
        <mxCell id="opyyuAFiJixU8oToXxR8-2" value="" style="endArrow=classic;html=1;strokeColor=#FF3333;fontStyle=1" edge="1" parent="1">
          <mxGeometry width="50" height="50" relative="1" as="geometry">
            <mxPoint x="50" y="50" as="sourcePoint" />
            <mxPoint x="120" y="50" as="targetPoint" />
          </mxGeometry>
        </mxCell>
        <mxCell id="opyyuAFiJixU8oToXxR8-4" value="写" style="text;html=1;strokeColor=none;fillColor=none;align=center;verticalAlign=middle;whiteSpace=wrap;rounded=0;fontStyle=1" vertex="1" parent="1">
          <mxGeometry y="40" width="40" height="20" as="geometry" />
        </mxCell>
        <mxCell id="opyyuAFiJixU8oToXxR8-33" value="" style="endArrow=classic;html=1;strokeColor=#009900;fontStyle=1" edge="1" parent="1">
          <mxGeometry width="50" height="50" relative="1" as="geometry">
            <mxPoint x="50" y="80" as="sourcePoint" />
            <mxPoint x="120" y="80" as="targetPoint" />
          </mxGeometry>
        </mxCell>
        <mxCell id="opyyuAFiJixU8oToXxR8-34" value="读" style="text;html=1;strokeColor=none;fillColor=none;align=center;verticalAlign=middle;whiteSpace=wrap;rounded=0;fontStyle=1" vertex="1" parent="1">
          <mxGeometry y="70" width="40" height="20" as="geometry" />
        </mxCell>
        <mxCell id="opyyuAFiJixU8oToXxR8-44" value="协议Parser" style="rounded=0;whiteSpace=wrap;html=1;fillColor=#d5e8d4;strokeColor=#82b366;" vertex="1" parent="1">
          <mxGeometry x="160" y="570" width="600" height="40" as="geometry" />
        </mxCell>
        <mxCell id="opyyuAFiJixU8oToXxR8-45" value="模型服务" style="rounded=0;whiteSpace=wrap;html=1;fillColor=#dae8fc;strokeColor=#6c8ebf;" vertex="1" parent="1">
          <mxGeometry x="160" y="670" width="290" height="60" as="geometry" />
        </mxCell>
        <mxCell id="opyyuAFiJixU8oToXxR8-46" value="规则服务" style="rounded=0;whiteSpace=wrap;html=1;fillColor=#dae8fc;strokeColor=#6c8ebf;" vertex="1" parent="1">
          <mxGeometry x="470" y="670" width="290" height="60" as="geometry" />
        </mxCell>
        <mxCell id="opyyuAFiJixU8oToXxR8-47" value="特征引擎" style="rounded=0;whiteSpace=wrap;html=1;fillColor=#d5e8d4;strokeColor=#82b366;" vertex="1" parent="1">
          <mxGeometry x="160" y="620" width="600" height="40" as="geometry" />
        </mxCell>
        <mxCell id="opyyuAFiJixU8oToXxR8-48" value="flink(双写)" style="rounded=0;whiteSpace=wrap;html=1;" vertex="1" parent="1">
          <mxGeometry x="390" y="210" width="120" height="40" as="geometry" />
        </mxCell>
        <mxCell id="opyyuAFiJixU8oToXxR8-49" value="" style="group" vertex="1" connectable="0" parent="1">
          <mxGeometry x="600" y="300" width="60" height="120" as="geometry" />
        </mxCell>
        <mxCell id="opyyuAFiJixU8oToXxR8-37" value="HBase" style="shape=cylinder3;whiteSpace=wrap;html=1;boundedLbl=1;backgroundOutline=1;size=15;" vertex="1" parent="opyyuAFiJixU8oToXxR8-49">
          <mxGeometry y="40" width="60" height="80" as="geometry" />
        </mxCell>
        <mxCell id="opyyuAFiJixU8oToXxR8-40" value="单副本部署" style="text;html=1;strokeColor=none;fillColor=none;align=center;verticalAlign=middle;whiteSpace=wrap;rounded=0;" vertex="1" parent="opyyuAFiJixU8oToXxR8-49">
          <mxGeometry x="10" width="40" height="20" as="geometry" />
        </mxCell>
        <mxCell id="opyyuAFiJixU8oToXxR8-50" value="" style="group" vertex="1" connectable="0" parent="1">
          <mxGeometry x="200" y="290" width="80" height="130" as="geometry" />
        </mxCell>
        <mxCell id="opyyuAFiJixU8oToXxR8-38" value="" style="shape=cylinder3;whiteSpace=wrap;html=1;boundedLbl=1;backgroundOutline=1;size=15;" vertex="1" parent="opyyuAFiJixU8oToXxR8-50">
          <mxGeometry x="20" y="30" width="60" height="80" as="geometry" />
        </mxCell>
        <mxCell id="opyyuAFiJixU8oToXxR8-36" value="redis" style="shape=cylinder3;whiteSpace=wrap;html=1;boundedLbl=1;backgroundOutline=1;size=15;" vertex="1" parent="opyyuAFiJixU8oToXxR8-50">
          <mxGeometry y="50" width="60" height="80" as="geometry" />
        </mxCell>
        <mxCell id="opyyuAFiJixU8oToXxR8-39" value="多副本部署" style="text;html=1;strokeColor=none;fillColor=none;align=center;verticalAlign=middle;whiteSpace=wrap;rounded=0;" vertex="1" parent="opyyuAFiJixU8oToXxR8-50">
          <mxGeometry x="20" width="40" height="20" as="geometry" />
        </mxCell>
        <mxCell id="opyyuAFiJixU8oToXxR8-51" value="" style="endArrow=classic;html=1;strokeColor=#FF3333;fontStyle=1;exitX=0.5;exitY=1;exitDx=0;exitDy=0;entryX=0.75;entryY=0.025;entryDx=0;entryDy=0;entryPerimeter=0;" edge="1" parent="1" source="opyyuAFiJixU8oToXxR8-48" target="opyyuAFiJixU8oToXxR8-38">
          <mxGeometry width="50" height="50" relative="1" as="geometry">
            <mxPoint x="350" y="290" as="sourcePoint" />
            <mxPoint x="420" y="290" as="targetPoint" />
          </mxGeometry>
        </mxCell>
        <mxCell id="opyyuAFiJixU8oToXxR8-52" value="" style="endArrow=classic;html=1;strokeColor=#FF3333;fontStyle=1;exitX=0.5;exitY=1;exitDx=0;exitDy=0;entryX=0.145;entryY=0;entryDx=0;entryDy=4.35;entryPerimeter=0;" edge="1" parent="1" source="opyyuAFiJixU8oToXxR8-48" target="opyyuAFiJixU8oToXxR8-37">
          <mxGeometry width="50" height="50" relative="1" as="geometry">
            <mxPoint x="460" y="210" as="sourcePoint" />
            <mxPoint x="275" y="332" as="targetPoint" />
          </mxGeometry>
        </mxCell>
        <mxCell id="opyyuAFiJixU8oToXxR8-53" value="" style="shape=flexArrow;endArrow=classic;html=1;" edge="1" parent="1">
          <mxGeometry width="50" height="50" relative="1" as="geometry">
            <mxPoint x="449.5" y="160" as="sourcePoint" />
            <mxPoint x="450" y="200" as="targetPoint" />
          </mxGeometry>
        </mxCell>
        <mxCell id="opyyuAFiJixU8oToXxR8-54" value="异构引擎" style="rounded=0;whiteSpace=wrap;html=1;fillColor=#f5f5f5;strokeColor=#666666;fontColor=#333333;" vertex="1" parent="1">
          <mxGeometry x="160" y="530" width="600" height="30" as="geometry" />
        </mxCell>
        <mxCell id="opyyuAFiJixU8oToXxR8-56" value="" style="endArrow=classic;html=1;strokeColor=#009900;fontStyle=1;exitX=0.5;exitY=0;exitDx=0;exitDy=0;entryX=0.5;entryY=1;entryDx=0;entryDy=0;entryPerimeter=0;" edge="1" parent="1" source="opyyuAFiJixU8oToXxR8-54" target="opyyuAFiJixU8oToXxR8-36">
          <mxGeometry width="50" height="50" relative="1" as="geometry">
            <mxPoint x="60" y="90" as="sourcePoint" />
            <mxPoint x="130" y="90" as="targetPoint" />
          </mxGeometry>
        </mxCell>
        <mxCell id="opyyuAFiJixU8oToXxR8-58" value="实时查询" style="edgeLabel;html=1;align=center;verticalAlign=middle;resizable=0;points=[];" vertex="1" connectable="0" parent="opyyuAFiJixU8oToXxR8-56">
          <mxGeometry x="-0.0455" y="1" relative="1" as="geometry">
            <mxPoint as="offset" />
          </mxGeometry>
        </mxCell>
        <mxCell id="opyyuAFiJixU8oToXxR8-57" value="" style="endArrow=classic;html=1;strokeColor=#009900;fontStyle=1;entryX=0.5;entryY=1;entryDx=0;entryDy=0;entryPerimeter=0;" edge="1" parent="1" target="opyyuAFiJixU8oToXxR8-37">
          <mxGeometry width="50" height="50" relative="1" as="geometry">
            <mxPoint x="460" y="530" as="sourcePoint" />
            <mxPoint x="240" y="430" as="targetPoint" />
          </mxGeometry>
        </mxCell>
        <mxCell id="opyyuAFiJixU8oToXxR8-59" value="离线查询" style="edgeLabel;html=1;align=center;verticalAlign=middle;resizable=0;points=[];" vertex="1" connectable="0" parent="opyyuAFiJixU8oToXxR8-57">
          <mxGeometry x="0.1098" y="-1" relative="1" as="geometry">
            <mxPoint as="offset" />
          </mxGeometry>
        </mxCell>
      </root>
    </mxGraphModel>
  </diagram>
</mxfile>
